<mxfile host="app.diagrams.net" modified="2021-01-17T13:34:43.524Z" agent="5.0 (Macintosh)" etag="m-Z7KFXZdkZNFzSeSkOr" version="14.1.2" type="github">
  <diagram id="8W64GQr6nrgsjohtDf04" name="Page-1">
    <mxGraphModel dx="1477" dy="1086" grid="1" gridSize="10" guides="1" tooltips="1" connect="1" arrows="1" fold="1" page="1" pageScale="1" pageWidth="827" pageHeight="1169" math="0" shadow="0">
      <root>
        <mxCell id="0" />
        <mxCell id="1" parent="0" />
        <mxCell id="jIf8l_-cMhYlxGsnswhn-13" value="" style="rounded=1;whiteSpace=wrap;html=1;" vertex="1" parent="1">
          <mxGeometry x="30" y="80" width="285" height="430" as="geometry" />
        </mxCell>
        <mxCell id="jIf8l_-cMhYlxGsnswhn-32" style="edgeStyle=orthogonalEdgeStyle;rounded=0;orthogonalLoop=1;jettySize=auto;html=1;" edge="1" parent="1" source="jIf8l_-cMhYlxGsnswhn-8" target="jIf8l_-cMhYlxGsnswhn-15">
          <mxGeometry relative="1" as="geometry" />
        </mxCell>
        <mxCell id="jIf8l_-cMhYlxGsnswhn-8" value="" style="rounded=1;whiteSpace=wrap;html=1;fillColor=#dae8fc;strokeColor=#6c8ebf;" vertex="1" parent="1">
          <mxGeometry x="45" y="160" width="120" height="310" as="geometry" />
        </mxCell>
        <mxCell id="jIf8l_-cMhYlxGsnswhn-1" value="" style="shape=image;verticalLabelPosition=bottom;labelBackgroundColor=#ffffff;verticalAlign=top;aspect=fixed;imageAspect=0;image=https://www.abhaybhargav.com/content/images/2019/02/GraphQL_Logo.svg.png;" vertex="1" parent="1">
          <mxGeometry x="65" y="180" width="80" height="80" as="geometry" />
        </mxCell>
        <mxCell id="jIf8l_-cMhYlxGsnswhn-2" value="&lt;div&gt;async-graphql&lt;/div&gt;&lt;div&gt;&lt;i&gt;GraphQL Server&lt;/i&gt;&lt;br&gt;&lt;/div&gt;" style="text;html=1;align=center;verticalAlign=middle;resizable=0;points=[];autosize=1;" vertex="1" parent="1">
          <mxGeometry x="55" y="265" width="100" height="30" as="geometry" />
        </mxCell>
        <mxCell id="jIf8l_-cMhYlxGsnswhn-3" value="" style="shape=image;verticalLabelPosition=bottom;labelBackgroundColor=#ffffff;verticalAlign=top;aspect=fixed;imageAspect=0;image=https://downtotheblock.com/wp-content/uploads/2020/01/9352/actix-actix-web.jpg;" vertex="1" parent="1">
          <mxGeometry x="75" y="320" width="60" height="60" as="geometry" />
        </mxCell>
        <mxCell id="jIf8l_-cMhYlxGsnswhn-4" value="&lt;div&gt;Actix-Web&lt;/div&gt;&lt;div&gt;&lt;i&gt;HTTP Server&lt;/i&gt;&lt;br&gt;&lt;/div&gt;" style="text;html=1;align=center;verticalAlign=middle;resizable=0;points=[];autosize=1;" vertex="1" parent="1">
          <mxGeometry x="55" y="390" width="90" height="30" as="geometry" />
        </mxCell>
        <mxCell id="jIf8l_-cMhYlxGsnswhn-7" value="" style="shape=image;verticalLabelPosition=bottom;labelBackgroundColor=#ffffff;verticalAlign=top;aspect=fixed;imageAspect=0;image=https://www.venafi.com/sites/default/files/content/body/Docker_Logo.png;" vertex="1" parent="1">
          <mxGeometry x="182.93" y="195" width="112.07" height="100" as="geometry" />
        </mxCell>
        <mxCell id="jIf8l_-cMhYlxGsnswhn-9" value="Application" style="text;html=1;align=center;verticalAlign=middle;resizable=0;points=[];autosize=1;fontStyle=1" vertex="1" parent="1">
          <mxGeometry x="65" y="440" width="80" height="20" as="geometry" />
        </mxCell>
        <mxCell id="jIf8l_-cMhYlxGsnswhn-22" style="edgeStyle=orthogonalEdgeStyle;rounded=0;orthogonalLoop=1;jettySize=auto;html=1;exitX=1;exitY=0.5;exitDx=0;exitDy=0;dashed=1;" edge="1" parent="1" source="jIf8l_-cMhYlxGsnswhn-11" target="jIf8l_-cMhYlxGsnswhn-19">
          <mxGeometry relative="1" as="geometry" />
        </mxCell>
        <mxCell id="jIf8l_-cMhYlxGsnswhn-11" value="" style="rounded=1;whiteSpace=wrap;html=1;fillColor=#dae8fc;strokeColor=#6c8ebf;" vertex="1" parent="1">
          <mxGeometry x="175" y="330" width="120" height="150" as="geometry" />
        </mxCell>
        <mxCell id="jIf8l_-cMhYlxGsnswhn-5" value="" style="shape=image;verticalLabelPosition=bottom;labelBackgroundColor=#ffffff;verticalAlign=top;aspect=fixed;imageAspect=0;image=https://opentelemetry.io/img/logos/opentelemetry-icon-color.png;" vertex="1" parent="1">
          <mxGeometry x="210" y="355" width="60" height="60" as="geometry" />
        </mxCell>
        <mxCell id="jIf8l_-cMhYlxGsnswhn-6" value="&lt;div&gt;Open Telemetry &lt;br&gt;&lt;/div&gt;&lt;div&gt;Agent&lt;/div&gt;" style="text;html=1;align=center;verticalAlign=middle;resizable=0;points=[];autosize=1;" vertex="1" parent="1">
          <mxGeometry x="185" y="430" width="100" height="30" as="geometry" />
        </mxCell>
        <mxCell id="jIf8l_-cMhYlxGsnswhn-14" value="Host Machine" style="text;html=1;align=center;verticalAlign=middle;resizable=0;points=[];autosize=1;" vertex="1" parent="1">
          <mxGeometry x="127.5" y="110" width="90" height="20" as="geometry" />
        </mxCell>
        <mxCell id="jIf8l_-cMhYlxGsnswhn-15" value="" style="shape=image;verticalLabelPosition=bottom;labelBackgroundColor=#ffffff;verticalAlign=top;aspect=fixed;imageAspect=0;image=https://www.computing.co.uk/w-images/72c3828d-ca81-4ee0-96ec-a06fa90bfce1/0/postgresqllogo-580x358.png;" vertex="1" parent="1">
          <mxGeometry x="83.4" y="580" width="178.19" height="110" as="geometry" />
        </mxCell>
        <mxCell id="jIf8l_-cMhYlxGsnswhn-17" value="Database" style="text;html=1;align=center;verticalAlign=middle;resizable=0;points=[];autosize=1;fontStyle=2" vertex="1" parent="1">
          <mxGeometry x="135" y="670" width="70" height="20" as="geometry" />
        </mxCell>
        <mxCell id="jIf8l_-cMhYlxGsnswhn-18" value="+" style="text;html=1;align=center;verticalAlign=middle;resizable=0;points=[];autosize=1;" vertex="1" parent="1">
          <mxGeometry x="95" y="297" width="20" height="20" as="geometry" />
        </mxCell>
        <mxCell id="jIf8l_-cMhYlxGsnswhn-24" style="edgeStyle=orthogonalEdgeStyle;rounded=0;orthogonalLoop=1;jettySize=auto;html=1;entryX=0;entryY=0.5;entryDx=0;entryDy=0;dashed=1;" edge="1" parent="1" source="jIf8l_-cMhYlxGsnswhn-19" target="jIf8l_-cMhYlxGsnswhn-23">
          <mxGeometry relative="1" as="geometry" />
        </mxCell>
        <mxCell id="jIf8l_-cMhYlxGsnswhn-26" style="edgeStyle=orthogonalEdgeStyle;rounded=0;orthogonalLoop=1;jettySize=auto;html=1;entryX=0;entryY=0.5;entryDx=0;entryDy=0;dashed=1;" edge="1" parent="1" source="jIf8l_-cMhYlxGsnswhn-19" target="jIf8l_-cMhYlxGsnswhn-25">
          <mxGeometry relative="1" as="geometry" />
        </mxCell>
        <mxCell id="jIf8l_-cMhYlxGsnswhn-28" style="edgeStyle=orthogonalEdgeStyle;rounded=0;orthogonalLoop=1;jettySize=auto;html=1;entryX=0;entryY=0.5;entryDx=0;entryDy=0;dashed=1;" edge="1" parent="1" source="jIf8l_-cMhYlxGsnswhn-19" target="jIf8l_-cMhYlxGsnswhn-27">
          <mxGeometry relative="1" as="geometry" />
        </mxCell>
        <mxCell id="jIf8l_-cMhYlxGsnswhn-19" value="" style="rounded=1;whiteSpace=wrap;html=1;fillColor=#dae8fc;strokeColor=#6c8ebf;" vertex="1" parent="1">
          <mxGeometry x="405" y="220" width="120" height="150" as="geometry" />
        </mxCell>
        <mxCell id="jIf8l_-cMhYlxGsnswhn-20" value="" style="shape=image;verticalLabelPosition=bottom;labelBackgroundColor=#ffffff;verticalAlign=top;aspect=fixed;imageAspect=0;image=https://opentelemetry.io/img/logos/opentelemetry-icon-color.png;" vertex="1" parent="1">
          <mxGeometry x="440" y="245" width="60" height="60" as="geometry" />
        </mxCell>
        <mxCell id="jIf8l_-cMhYlxGsnswhn-21" value="&lt;div&gt;Open Telemetry &lt;br&gt;&lt;/div&gt;&lt;div&gt;Collector&lt;/div&gt;" style="text;html=1;align=center;verticalAlign=middle;resizable=0;points=[];autosize=1;" vertex="1" parent="1">
          <mxGeometry x="415" y="320" width="100" height="30" as="geometry" />
        </mxCell>
        <mxCell id="jIf8l_-cMhYlxGsnswhn-23" value="" style="shape=image;verticalLabelPosition=bottom;labelBackgroundColor=#ffffff;verticalAlign=top;aspect=fixed;imageAspect=0;image=https://www.jaegertracing.io/img/jaeger-logo.png;" vertex="1" parent="1">
          <mxGeometry x="594.84" y="160" width="166.15" height="54" as="geometry" />
        </mxCell>
        <mxCell id="jIf8l_-cMhYlxGsnswhn-25" value="" style="shape=image;verticalLabelPosition=bottom;labelBackgroundColor=#ffffff;verticalAlign=top;aspect=fixed;imageAspect=0;image=https://www.itopstimes.com/wp-content/uploads/2019/01/2b6024713b7ace798502139fd5ab8fe4.png;" vertex="1" parent="1">
          <mxGeometry x="594.84" y="257.5" width="176.47" height="75" as="geometry" />
        </mxCell>
        <mxCell id="jIf8l_-cMhYlxGsnswhn-27" value="" style="shape=image;verticalLabelPosition=bottom;labelBackgroundColor=#ffffff;verticalAlign=top;aspect=fixed;imageAspect=0;image=http://4.bp.blogspot.com/-DsmFcaeMi4U/T9DX_XLMrdI/AAAAAAAAABg/jKF_pXToIEo/s1600/zipkin.jpg;" vertex="1" parent="1">
          <mxGeometry x="593.5" y="360" width="168.83" height="100" as="geometry" />
        </mxCell>
        <mxCell id="jIf8l_-cMhYlxGsnswhn-30" value="" style="shape=image;verticalLabelPosition=bottom;labelBackgroundColor=#ffffff;verticalAlign=top;aspect=fixed;imageAspect=0;image=https://avatars1.githubusercontent.com/u/3380462?s=200&amp;v=4;" vertex="1" parent="1">
          <mxGeometry x="639.26" y="540" width="80" height="80" as="geometry" />
        </mxCell>
        <mxCell id="jIf8l_-cMhYlxGsnswhn-31" value="Prometheus - &lt;i&gt;&lt;b&gt;TODO&lt;/b&gt;&lt;/i&gt;" style="text;html=1;align=center;verticalAlign=middle;resizable=0;points=[];autosize=1;" vertex="1" parent="1">
          <mxGeometry x="605" y="650" width="130" height="20" as="geometry" />
        </mxCell>
        <mxCell id="jIf8l_-cMhYlxGsnswhn-33" value="Current Architecture - Locally all run via `docker-compose`" style="text;html=1;align=center;verticalAlign=middle;resizable=0;points=[];autosize=1;fontStyle=1;fontSize=20;" vertex="1" parent="1">
          <mxGeometry x="30" y="20" width="580" height="30" as="geometry" />
        </mxCell>
      </root>
    </mxGraphModel>
  </diagram>
</mxfile>
